PathFileType	4	(X/Y/Z)	SUBJ26_1_walk_RCNL2025.trc
DataRate	CameraRate	NumFrames	NumMarkers	Units	OrigDataRate	OrigDataStartFrame	OrigNumFrames
100	100	9	25	mm	100	241	385
Frame#	Time	R_Shoulder			L_Shoulder			C7			J_Notch			R_Elbow			L_Elbow			R_Wrist			L_Wrist			R_Asis			L_Asis			Sacral			Thoracic			Sternum			R_Thigh_Lateral			R_Knee_Lateral			R_Shank_Lateral			R_Ankle_Lateral			R_Heel			R_Toe			L_Thigh_Lateral			L_Knee_Lateral			L_Shank_Lateral			L_Ankle_Lateral			L_Heel			L_Toe		
		X1	Y1	Z1	X2	Y2	Z2	X3	Y3	Z3	X4	Y4	Z4	X5	Y5	Z5	X6	Y6	Z6	X7	Y7	Z7	X8	Y8	Z8	X9	Y9	Z9	X10	Y10	Z10	X11	Y11	Z11	X12	Y12	Z12	X13	Y13	Z13	X14	Y14	Z14	X15	Y15	Z15	X16	Y16	Z16	X17	Y17	Z17	X18	Y18	Z18	X19	Y19	Z19	X20	Y20	Z20	X21	Y21	Z21	X22	Y22	Z22	X23	Y23	Z23	X24	Y24	Z24	X25	Y25	Z25
241	2.40000000	293.440186	1322.072510	352.160522	270.340576	1333.038208	17.123682	203.224380	1389.576782	200.493607	344.052063	1287.746338	176.603546	226.008972	1006.440613	454.214478	189.791946	1016.137207	-86.962128	327.252197	774.442383	442.908951	284.202759	787.410614	-100.477310	324.112762	918.896118	300.969513	274.082520	921.713684	2.800257	97.156792	931.244080	186.547119	117.869225	1044.191895	182.068344	382.327850	1031.979492	173.278198	243.016541	588.980103	351.966827	229.743668	438.382690	280.528168	203.860458	287.465393	320.659821	169.689133	54.998730	251.726532	113.839767	42.256142	194.167648	289.238007	45.434704	227.999008	294.796295	611.819458	-42.784962	360.104828	463.627502	24.050377	278.415588	307.694977	-36.222466	215.943481	111.442009	59.472359	157.930374	112.176003	119.526047	323.102661	59.567661	86.884781
242	2.41000000	306.809540	1321.408813	352.062439	281.677734	1332.226440	16.921354	215.838943	1388.760986	200.938126	356.552582	1286.917969	176.204071	241.231812	1005.960693	455.522583	197.637787	1015.196350	-85.185295	345.439423	775.330017	443.631058	287.389359	784.624695	-98.622219	335.962219	918.304016	301.989532	287.716675	921.151855	3.913262	109.456497	930.352478	185.727966	130.166611	1043.381836	182.390961	394.998169	1031.208374	173.195389	252.014435	588.258057	351.977875	232.637390	438.284180	280.187012	205.275940	287.570801	320.509857	169.735657	55.095356	251.515427	113.913361	42.478352	193.945038	289.370483	45.352013	227.870361	312.414856	612.643127	-42.619450	379.391205	464.475525	25.174835	304.849030	304.259521	-35.039829	256.250549	103.641846	59.840431	198.998322	100.338684	120.627403	366.727325	58.414089	85.488319
243	2.42000000	320.161896	1320.479614	351.886200	293.077301	1331.205566	16.677179	228.453476	1387.723633	201.306335	369.068542	1285.888672	175.771744	256.488098	1005.248047	456.734100	205.453568	1014.111511	-83.427208	363.532578	775.968170	444.374466	290.663422	781.839508	-96.797829	347.815460	917.504822	302.924957	301.375702	920.069336	4.833681	121.837051	929.293091	184.950638	142.510162	1042.344116	182.593658	407.683807	1030.192383	172.990097	260.406311	587.457458	351.896423	235.429840	438.268890	279.867889	206.570068	287.776947	320.379974	169.746201	55.232441	251.273376	114.000999	42.754227	193.656021	289.480927	45.263577	227.754364	329.568604	613.054504	-42.349480	397.921234	464.784332	26.348570	331.428772	300.524200	-34.061481	297.239655	96.319450	59.795380	240.916504	89.047363	121.180870	410.570984	57.903679	83.963661
244	2.43000000	333.499268	1319.300415	351.626099	304.563202	1329.989258	16.387976	241.065796	1386.466797	201.584503	381.606201	1284.670044	175.311020	271.779510	1004.324341	457.835388	213.283661	1012.903259	-81.708542	381.530334	776.369476	445.135620	294.054764	779.056702	-95.005070	359.690582	916.482361	303.751862	315.024384	918.524597	5.557354	134.304565	928.067017	184.235550	154.915436	1041.086548	182.689072	420.377533	1028.947510	172.668961	268.077667	586.644043	351.746887	238.141006	438.347412	279.566833	207.760956	288.108429	320.252136	169.724121	55.430336	250.977676	114.105347	43.122166	193.266037	289.566742	45.170734	227.647812	346.180573	612.992737	-41.946251	415.703857	464.526733	27.559246	358.271637	296.568085	-33.335804	338.782562	89.685036	59.353905	283.501617	78.548889	121.175903	454.482910	58.168316	82.372726
245	2.44000000	346.822693	1317.888550	351.280975	316.154327	1328.589722	16.050188	253.672867	1384.992188	201.762589	394.172302	1283.273438	174.825012	287.098389	1003.208130	458.815125	221.166885	1011.587646	-80.051483	399.430176	776.548431	445.906891	297.599396	776.281403	-93.250141	371.615662	915.234558	304.461609	328.646027	916.591370	6.097356	146.861450	926.668640	183.589325	167.388260	1039.618408	182.688019	433.081329	1027.484985	172.245682	274.953796	585.882202	351.559448	240.813049	438.526642	279.277527	208.877457	288.585693	320.101959	169.677277	55.709888	250.600983	114.235008	43.620869	192.739609	289.630219	45.075706	227.548691	362.168427	612.411987	-41.400227	432.767670	463.702484	28.788610	385.455627	292.526459	-32.898956	380.684021	83.944984	58.549755	326.504425	69.076180	120.629356	498.259613	59.323120	80.787270
246	2.45000000	360.132660	1316.264648	350.854004	327.865662	1327.018066	15.660534	266.272888	1383.305420	201.834366	406.772766	1281.709961	174.315140	302.427765	1001.913879	459.664368	229.135773	1010.176147	-78.476295	417.224426	776.518707	446.677338	301.346710	773.524139	-91.548557	383.614594	913.770752	305.050568	342.237213	914.350830	6.479891	159.506882	925.088928	183.007858	179.922607	1037.952515	182.595688	445.805481	1025.813599	171.737503	281.025269	585.234375	351.356598	243.519943	438.809448	278.988403	209.964630	289.220276	319.900299	169.617493	56.092285	250.114899	114.408615	44.285839	192.045135	289.681854	44.982353	227.458817	377.451691	611.283752	-40.722851	449.165588	462.341583	30.013939	412.980957	288.579742	-32.762550	422.663147	79.281944	57.433918	369.601929	60.827293	119.587807	541.636047	61.454037	79.284569
247	2.46000000	373.429016	1314.452515	350.351868	339.707520	1325.285278	15.217121	278.866760	1381.419678	201.796753	419.412415	1279.991089	173.780487	317.743683	1000.453552	460.377014	237.220688	1008.676819	-76.998466	434.896973	776.291046	447.434204	305.355408	770.798218	-89.923531	395.702972	912.109131	305.515930	355.801788	911.883850	6.737726	172.237335	923.320190	182.478668	192.505066	1036.105469	182.409744	458.566193	1023.943970	171.161835	286.367584	584.759338	351.143127	246.368652	439.194611	278.681427	211.086411	290.016205	319.618835	169.560486	56.599777	249.496796	114.648361	45.152069	191.161285	289.740204	44.896305	227.383301	391.962708	609.598328	-39.947365	464.977783	460.503571	31.212273	440.735016	284.924805	-32.904873	464.347961	75.830750	56.070881	412.394531	53.941631	118.124336	584.276367	64.596710	77.939194
248	2.47000000	386.710846	1312.477417	349.782623	351.684204	1323.402954	14.718697	291.458862	1379.357544	201.648697	432.096069	1278.130371	173.218079	333.019470	998.839600	460.948792	245.454483	1007.096863	-75.630165	452.422714	775.873047	448.164398	309.680359	768.114136	-88.399132	407.892334	910.278687	305.856812	369.346558	909.267334	6.902569	185.047668	921.360718	181.983368	205.121094	1034.098389	182.122574	471.381927	1021.893311	170.534592	291.139496	584.505493	350.905304	249.487732	439.678284	278.335602	212.322296	290.975830	319.237457	169.525406	57.256203	248.738953	114.971855	46.254025	190.084518	289.826202	44.823101	227.326172	405.666199	607.368042	-39.126102	480.311890	458.275574	32.366776	468.470734	281.737305	-33.270420	505.286530	73.652794	54.535370	454.409882	48.479401	116.334145	625.775085	68.713539	76.815880
249	2.48000000	399.977112	1310.366089	349.153137	363.793701	1321.384399	14.163333	304.057739	1377.151367	201.390732	444.827972	1276.145142	172.623245	348.230988	997.087036	461.374817	253.874771	1005.444092	-74.384705	469.769943	775.270538	448.855392	314.361725	765.475861	-86.994265	420.193573	908.322937	306.075500	382.878143	906.572144	6.998226	197.934280	919.218933	181.498276	217.760468	1031.957642	181.726166	484.269440	1019.689819	169.869186	295.564545	584.500061	350.616394	253.006882	440.255707	277.935028	213.757492	292.104797	318.751892	169.534195	58.086754	247.857269	115.392128	47.620209	188.836411	289.956635	44.765896	227.287125	418.579254	604.627441	-38.318398	495.300568	455.770325	33.471600	495.824707	279.137238	-33.775726	544.967957	72.714287	52.912315	495.119415	44.409679	114.332489	665.676270	73.672752	75.965462
